# xmcd CD database file
#
# Track frame offsets:
#	150
#	13598
#	18294
#	35642
#	45628
#	50249
#	58036
#	72692
#	75920
#	79270
#	98437
#	102704
#	119744
#	128618
#	138442
#	145224
#	155560
#	158910
#
# Disc length: 2250 seconds
#
# Revision: 15
# Processed by: cddbd v1.5.2PL0 Copyright (c) Steve Scherf et al.
# Submitted via: CDex 1.51
#
DISCID=fb08c812
DTITLE=Various Artist - Jazz in Paris - Jazz and Cinéma  [Vol.1]
DYEAR=2000
DGENRE=Jazz
TTITLE0=Barney Wilen ~ Un témoin dans la ville - Témoin dans la ville  {Enregistré en avril 1959 à Paris}
TTITLE1=Barney Wilen ~ Un témoin dans la ville - La pendaison
TTITLE2=Barney Wilen ~ Un témoin dans la ville - Mélodie pour les radio-taxis
TTITLE3=Barney Wilen ~ Un témoin dans la ville - Poursuite et métro
TTITLE4=Barney Wilen ~ Un témoin dans la ville - Ambiance pourpre
TTITLE5=Barney Wilen ~ Un témoin dans la ville - Préméditation dans l'appartement
TTITLE6=Barney Wilen ~ Un témoin dans la ville - La vie n'est qu'une lutte
TTITLE7=Barney Wilen ~ Un témoin dans la ville - Complainte du chauffeur
TTITLE8=Barney Wilen ~ Un témoin dans la ville - Sur l'antenne
TTITLE9=Barney Wilen ~ Un témoin dans la ville - Blues de l'antenne
TTITLE10=Barney Wilen ~ Un témoin dans la ville - S.O.S. radio-taxis
TTITLE11=Barney Wilen ~ Un témoin dans la ville - Final au jardin d'acclimatation
TTITLE12=Alain Goraguer ~ J'irai cracher sur vos tombes - Blues de memphis  {Enregistré en 1959 à Paris}
TTITLE13=Alain Goraguer ~ J'irai cracher sur vos tombes - Générique
TTITLE14=Alain Goraguer ~ J'irai cracher sur vos tombes - Thème d'amour
TTITLE15=Alain Goraguer ~ J'irai cracher sur vos tombes - Thème de Liz
TTITLE16=Alain Goraguer ~ J'irai cracher sur vos tombes - Blues de Memphis
TTITLE17=Alain Goraguer ~ J'irai cracher sur vos tombes - Surprise-partie au bord de l'eau
EXTD=Series: Jazz in Paris, Vol. 49\n\nTracks 1..12: Music by Barney Wilen: Un témoin dans la ville (Original Soundtrack]\nTracks 13..18: Music by Alain Goraguer: J'irai cracher sur vos tombes (Original Soundtrack]\n\n(P) 1972 (C) 2000 Universal Music S.
EXTD=A. France\nGitanes Jazz Production\n548318-2\n\n YEAR: 2000
EXTT0=
EXTT1=
EXTT2=
EXTT3=
EXTT4=
EXTT5=
EXTT6=
EXTT7=
EXTT8=
EXTT9=
EXTT10=
EXTT11=
EXTT12=
EXTT13=
EXTT14=
EXTT15=
EXTT16=
EXTT17=
PLAYORDER=
